<?xml version="1.0" encoding="UTF-8" standalone="no"?>
<!DOCTYPE svg PUBLIC "-//W3C//DTD SVG 1.1//EN" "http://www.w3.org/Graphics/SVG/1.1/DTD/svg11.dtd">
<svg width="100%" height="100%" viewBox="0 0 226 260" version="1.1" xmlns="http://www.w3.org/2000/svg" xmlns:xlink="http://www.w3.org/1999/xlink" xml:space="preserve" xmlns:serif="http://www.serif.com/" style="fill-rule:evenodd;clip-rule:evenodd;stroke-linejoin:round;stroke-miterlimit:2;">
    <g transform="matrix(1,0,0,1,-74.9935,-57.5897)">
        <g transform="matrix(1,0,0,1,-2e-05,-0.002435)">
            <path d="M234.367,268.701L234.367,252.463L290.616,284.938L234.367,317.413L234.367,301.174L176.965,301.174L176.965,301.17L121.869,301.17L74.994,219.98L93.748,187.506L140.623,268.696L234.367,268.696L234.364,268.701L234.367,268.701ZM140.633,73.83L253.131,73.83L300.006,155.02L281.252,187.494L234.377,106.304L140.634,106.304L140.633,122.542L84.385,90.067L140.633,57.592L140.633,73.83ZM140.633,106.304L140.634,106.304L140.634,106.303L140.633,106.303L140.633,106.304Z" style="fill:rgb(40,42,54);"/>
        </g>
    </g>
</svg>
